<?xml version="1.0" encoding="UTF-8"?>
<svg viewBox="0 0 720 720" xmlns="http://www.w3.org/2000/svg">
 <path transform="matrix(1.3448 0 0 1.3247 -129.56 -82.517)" d="m360 330c0 2.4403-3.2895 1.204-4.056 0-2.0771-3.2627 0.9135-7.1117 4.056-8.112 5.6212-1.7893 11.031 2.752 12.168 8.112 1.6692 7.8661-4.5986 15.019-12.168 16.224-10.089 1.6057-19.035-6.446-20.28-16.224-1.5667-12.305 8.2933-23.064 20.28-24.336 14.518-1.5404 27.101 10.14 28.392 24.336 1.5215 16.729-11.987 31.143-28.392 32.448-18.94 1.5072-35.187-13.834-36.504-32.448-1.4961-21.151 15.681-39.234 36.504-40.56 23.361-1.4872 43.283 17.527 44.616 40.56 1.4799 25.571-19.374 47.333-44.616 48.672-27.781 1.4738-51.384-21.22-52.728-48.672-1.4687-29.99 23.067-55.435 52.728-56.784 32.2-1.4643 59.487 24.914 60.84 56.784 1.4604 34.41-26.76 63.54-60.84 64.896-36.619 1.4571-67.593-28.607-68.952-64.896-1.4541-38.829 30.453-71.646 68.952-73.008 41.039-1.4515 75.7 32.3 77.064 73.008 1.4491 43.248-34.146 79.754-77.064 81.12-45.458 1.447-83.808-35.993-85.176-81.12-1.4451-47.667 37.84-87.862 85.176-89.232 49.877-1.4433 91.917 39.686 93.288 89.232 1.4418 52.086-41.533 95.971-93.288 97.344-54.296 1.4403-100.03-43.379-101.4-97.344-1.439-56.505 45.226-104.08 101.4-105.46 58.715-1.4377 108.14 47.072 109.51 105.46 1.4366 60.924-48.919 112.19-109.51 113.57-63.134 1.4355-116.25-50.765-117.62-113.57-1.4345-65.343 52.612-120.3 117.62-121.68 67.553-1.4336 124.36 54.458 125.74 121.68 1.4327 69.762-56.305 128.41-125.74 129.79-71.972 1.4319-132.47-58.152-133.85-129.79-1.4311-74.181 59.998-136.52 133.85-137.9 76.391-1.4304 140.58 61.845 141.96 137.9 1.4297 78.6-63.691 144.63-141.96 146.02-80.81 1.4291-148.69-65.538-150.07-146.02-1.4285-83.019 67.384-152.74 150.07-154.13 85.228-1.4279 156.8 69.231 158.18 154.13 1.4274 87.438-71.077 160.85-158.18 162.24-89.647 1.4269-164.91-72.924-166.3-162.24-1.4264-91.857 74.771-168.96 166.3-170.35 94.066-1.4259 173.02 76.617 174.41 170.35 1.4255 96.276-78.464 177.08-174.41 178.46-98.485 1.425-181.13-80.31-182.52-178.46-1.4246-100.69 82.157-185.19 182.52-186.58 102.9-1.4242 189.24 84.003 190.63 186.58 1.4239 105.11-85.85 193.3-190.63 194.69-107.32 1.4235-197.35-87.696-198.74-194.69-1.4232-109.53 89.543-201.41 198.74-202.8 111.74-1.4228 205.47 91.39 206.86 202.8 1.4225 113.95-93.236 209.52-206.86 210.91-116.16 1.4222-213.58-95.083-214.97-210.91-1.4219-118.37 96.929-217.63 214.97-219.02 120.58-1.4216 221.69 98.776 223.08 219.02 1.4214 122.79-100.62 225.74-223.08 227.14-125 1.4211-229.8-102.47-231.19-227.14-1.4209-127.21 104.32-233.86 231.19-235.25 129.42-1.4206 237.91 106.16 239.3 235.25 1.4204 131.63-108.01 241.97-239.3 243.36-133.84 1.4202-246.02-109.86-247.42-243.36-1.42-136.05 111.7-250.08 247.42-251.47 138.26-1.4197 254.13 113.55 255.53 251.47 1.4195 140.46-115.39 258.19-255.53 259.58-142.67 1.4193-262.25-117.24-263.64-259.58-1.4191-144.88 119.09-266.3 263.64-267.7 147.09-1.419 270.36 120.93 271.75 267.7 1.4188 149.3-122.78 274.41-271.75 275.81-1.601 0.01499-3.2022 0.01604-4.8032 0.00315" fill="none" stroke="#f5f5f5" stroke-width="4.4925"/>
</svg>
